<svg width="146" height="231" viewBox="0 0 146 231" fill="none" xmlns="http://www.w3.org/2000/svg">
<g clip-path="url(#clip0_79_317)">
<path d="M70.813 60.2037C71.4119 58.7281 72.0941 58.6098 73.5132 58.8431C76.8248 58.8431 76.3358 63.0898 74.5648 64.6001C73.9134 65.1554 72.3025 65.1758 71.5918 64.7309C70.7187 64.1848 70.7091 63.756 70.7091 62.7946C70.7091 62.0374 70.52 60.9254 70.813 60.2037Z" fill="white"/>
<path d="M68.403 203.006C69.002 201.53 69.6841 201.412 71.1032 201.646C74.4148 201.646 73.9263 205.892 72.1548 207.402C71.5035 207.958 69.8925 207.978 69.1818 207.533C68.3087 206.987 68.2991 206.558 68.2991 205.597C68.2991 204.84 68.11 203.728 68.403 203.006Z" fill="white"/>
<path d="M70.813 131.363C71.4119 129.887 72.0941 129.769 73.5132 130.002C76.8248 130.002 76.3358 134.249 74.5648 135.759C73.9134 136.315 72.3025 136.334 71.5918 135.89C70.7187 135.344 70.7091 134.915 70.7091 133.954C70.7091 133.196 70.52 132.084 70.813 131.363Z" fill="white"/>
<path d="M13.5356 23.4141C14.1346 21.9385 14.8167 21.8199 16.2358 22.0534C19.5474 22.0534 19.0584 26.3 17.2874 27.8103C16.636 28.3658 15.0251 28.3858 14.3144 27.9412C13.4413 27.395 13.4317 26.9663 13.4317 26.0047C13.4317 25.2475 13.2426 24.1355 13.5356 23.4141Z" fill="white"/>
<path d="M11.1257 166.216C11.7246 164.741 12.4068 164.622 13.8259 164.856C17.1374 164.856 16.6485 169.102 14.8775 170.613C14.2261 171.168 12.6152 171.188 11.9045 170.744C11.0314 170.198 11.0217 169.769 11.0217 168.807C11.0217 168.05 10.8327 166.938 11.1257 166.216Z" fill="white"/>
<path d="M129.536 23.4141C130.136 21.9385 130.818 21.8199 132.237 22.0534C135.548 22.0534 135.059 26.3 133.288 27.8103C132.637 28.3658 131.026 28.3858 130.315 27.9412C129.442 27.395 129.433 26.9663 129.433 26.0047C129.433 25.2475 129.244 24.1355 129.536 23.4141Z" fill="white"/>
<path d="M127.127 166.216C127.726 164.741 128.408 164.622 129.827 164.856C133.138 164.856 132.649 169.102 130.878 170.613C130.227 171.168 128.616 171.188 127.905 170.744C127.032 170.198 127.023 169.769 127.023 168.807C127.023 168.05 126.834 166.938 127.127 166.216Z" fill="white"/>
<path d="M13.5356 94.5733C14.1346 93.0977 14.8167 92.9789 16.2358 93.2127C19.5474 93.2127 19.0584 97.459 17.2874 98.9692C16.636 99.525 15.0251 99.5449 14.3144 99.1004C13.4413 98.5544 13.4317 98.1252 13.4317 97.1637C13.4317 96.4065 13.2426 95.2945 13.5356 94.5733Z" fill="white"/>
<path d="M129.536 94.5733C130.136 93.0977 130.818 92.9789 132.237 93.2127C135.548 93.2127 135.059 97.459 133.288 98.9692C132.637 99.525 131.026 99.5449 130.315 99.1004C129.442 98.5544 129.433 98.1252 129.433 97.1637C129.433 96.4065 129.244 95.2945 129.536 94.5733Z" fill="white"/>
<path d="M100.696 42.293C101.294 40.8174 101.977 40.6988 103.396 40.9323C106.707 40.9323 106.219 45.1789 104.447 46.6892C103.796 47.2446 102.185 47.2649 101.475 46.82C100.602 46.2739 100.592 45.8452 100.592 44.8837C100.592 44.1264 100.403 43.0144 100.696 42.293Z" fill="white"/>
<path d="M98.2856 185.095C98.885 183.62 99.5672 183.501 100.986 183.735C104.297 183.735 103.809 187.981 102.038 189.492C101.386 190.047 99.7755 190.067 99.0648 189.622C98.1918 189.076 98.1821 188.648 98.1821 187.686C98.1821 186.929 97.993 185.817 98.2856 185.095Z" fill="white"/>
<path d="M100.696 113.452C101.294 111.976 101.977 111.858 103.396 112.091C106.707 112.091 106.219 116.338 104.447 117.848C103.796 118.404 102.185 118.424 101.475 117.979C100.602 117.433 100.592 117.004 100.592 116.043C100.592 115.286 100.403 114.174 100.696 113.452Z" fill="white"/>
<path d="M43.4181 5.50337C44.0171 4.02771 44.6992 3.90914 46.1183 4.14264C49.4299 4.14264 48.9414 8.38916 47.1699 9.89958C46.5185 10.4551 44.9081 10.475 44.1969 10.0304C43.3238 9.48429 43.3142 9.05551 43.3142 8.09399C43.3142 7.33677 43.1256 6.22474 43.4181 5.50337Z" fill="white"/>
<path d="M41.0082 148.306C41.6071 146.83 42.2898 146.711 43.7084 146.945C47.0199 146.945 46.5314 151.191 44.76 152.702C44.1086 153.257 42.4981 153.277 41.7874 152.833C40.9144 152.287 40.9042 151.858 40.9042 150.896C40.9042 150.139 40.7156 149.027 41.0082 148.306Z" fill="white"/>
<path d="M43.4181 76.6624C44.0171 75.1868 44.6992 75.0681 46.1183 75.3018C49.4299 75.3018 48.9414 79.5481 47.1699 81.0583C46.5185 81.6141 44.9081 81.634 44.1969 81.1896C43.3238 80.6435 43.3142 80.2143 43.3142 79.2529C43.3142 78.4956 43.1256 77.3836 43.4181 76.6624Z" fill="white"/>
<path d="M41.0082 219.465C41.6071 217.989 42.2898 217.87 43.7084 218.104C47.0199 218.104 46.5314 222.35 44.76 223.861C44.1086 224.416 42.4981 224.436 41.7874 223.992C40.9144 223.445 40.9042 223.017 40.9042 222.055C40.9042 221.298 40.7156 220.186 41.0082 219.465Z" fill="white"/>
<path d="M84.6884 53.7288C84.4474 52.504 84.8968 51.1277 86.2892 51.0044C87.5013 51.4872 89.2309 51.2063 89.8096 52.6972C90.4817 54.4292 90.8179 56.7946 89.5704 58.3844C88.8638 59.2844 87.781 59.3781 86.7143 59.0852C85.7906 58.8316 85.9304 57.8013 85.9304 57.0681C85.9304 56.5798 85.9157 56.0767 85.7179 55.6202C85.429 54.955 84.831 54.4555 84.6884 53.7288Z" fill="white"/>
<path d="M82.2785 196.531C82.0375 195.306 82.4869 193.93 83.8793 193.807C85.0914 194.289 86.821 194.009 87.3997 195.499C88.0717 197.231 88.408 199.597 87.1605 201.186C86.4539 202.087 85.3711 202.18 84.3043 201.887C83.3807 201.634 83.5205 200.604 83.5205 199.87C83.5205 199.382 83.5058 198.879 83.308 198.422C83.0191 197.757 82.4211 197.258 82.2785 196.531Z" fill="white"/>
<path d="M84.6884 124.888C84.4474 123.663 84.8968 122.287 86.2892 122.163C87.5013 122.646 89.2309 122.365 89.8096 123.856C90.4817 125.588 90.8179 127.954 89.5704 129.543C88.8638 130.443 87.781 130.537 86.7143 130.244C85.7906 129.991 85.9304 128.96 85.9304 128.227C85.9304 127.739 85.9157 127.236 85.7179 126.779C85.429 126.114 84.831 125.615 84.6884 124.888Z" fill="white"/>
<path d="M27.4106 16.9391C27.1701 15.7141 27.619 14.3379 29.0114 14.2147C30.2235 14.6974 31.9531 14.4163 32.5323 15.9076C33.2043 17.6394 33.5401 20.0048 32.2931 21.5944C31.5865 22.4944 30.5037 22.5883 29.4369 22.2953C28.5133 22.0417 28.6531 21.0116 28.6531 20.2785C28.6531 19.7899 28.6384 19.2869 28.4406 18.8303C28.1517 18.1651 27.5537 17.6658 27.4106 16.9391Z" fill="white"/>
<path d="M25.0007 159.742C24.7601 158.516 25.2091 157.141 26.6015 157.017C27.8141 157.5 29.5432 157.219 30.1223 158.71C30.7944 160.442 31.1307 162.807 29.8831 164.397C29.1766 165.297 28.0937 165.391 27.027 165.098C26.1033 164.844 26.2432 163.814 26.2432 163.081C26.2432 162.592 26.2284 162.09 26.0306 161.633C25.7418 160.967 25.1438 160.468 25.0007 159.742Z" fill="white"/>
<path d="M27.4106 88.0983C27.1701 86.8731 27.619 85.4968 29.0114 85.3739C30.2235 85.8567 31.9531 85.5753 32.5323 87.0667C33.2043 88.7987 33.5401 91.1637 32.2931 92.7534C31.5865 93.6534 30.5037 93.7472 29.4369 93.4543C28.5133 93.2006 28.6531 92.1708 28.6531 91.4377C28.6531 90.9489 28.6384 90.4457 28.4406 89.9893C28.1517 89.324 27.5537 88.8246 27.4106 88.0983Z" fill="white"/>
<path d="M-1.50819 35.818C-1.74877 34.593 -1.29935 33.2168 0.0930686 33.0936C1.30517 33.5763 3.03477 33.2952 3.61345 34.7865C4.28551 36.5183 4.62177 38.8837 3.37425 40.4733C2.66769 41.3733 1.58485 41.4672 0.518107 41.1742C-0.405573 40.9206 -0.265731 39.8905 -0.265731 39.1574C-0.265731 38.6688 -0.280453 38.1658 -0.478253 37.7092C-0.767133 37.044 -1.36513 36.5447 -1.50819 35.818Z" fill="white"/>
<path d="M-3.91814 178.62C-4.15872 177.396 -3.70929 176.019 -2.31687 175.896C-1.10477 176.379 0.624826 176.098 1.20351 177.589C1.87557 179.321 2.21182 181.686 0.964304 183.276C0.257744 184.176 -0.825096 184.27 -1.89184 183.977C-2.81552 183.723 -2.67567 182.693 -2.67567 181.96C-2.67567 181.471 -2.6904 180.968 -2.8882 180.512C-3.17708 179.846 -3.77508 179.347 -3.91814 178.62Z" fill="white"/>
<path d="M114.493 35.818C114.252 34.593 114.701 33.2168 116.094 33.0936C117.306 33.5763 119.035 33.2952 119.614 34.7865C120.286 36.5183 120.622 38.8837 119.375 40.4733C118.669 41.3733 117.586 41.4672 116.519 41.1742C115.595 40.9206 115.735 39.8905 115.735 39.1574C115.735 38.6688 115.72 38.1658 115.522 37.7092C115.234 37.044 114.636 36.5447 114.493 35.818Z" fill="white"/>
<path d="M112.083 178.62C111.842 177.396 112.291 176.019 113.684 175.896C114.896 176.379 116.625 176.098 117.204 177.589C117.876 179.321 118.212 181.686 116.965 183.276C116.259 184.176 115.176 184.27 114.109 183.977C113.185 183.723 113.325 182.693 113.325 181.96C113.325 181.471 113.311 180.968 113.112 180.512C112.824 179.846 112.226 179.347 112.083 178.62Z" fill="white"/>
<path d="M-1.50819 106.977C-1.74877 105.752 -1.29935 104.376 0.0930686 104.253C1.30517 104.735 3.03477 104.454 3.61345 105.945C4.28551 107.677 4.62177 110.043 3.37425 111.633C2.66769 112.533 1.58485 112.626 0.518107 112.333C-0.405573 112.08 -0.265731 111.05 -0.265731 110.316C-0.265731 109.828 -0.280453 109.325 -0.478253 108.868C-0.767133 108.203 -1.36513 107.704 -1.50819 106.977Z" fill="white"/>
<path d="M114.493 106.977C114.252 105.752 114.701 104.376 116.094 104.253C117.306 104.735 119.035 104.454 119.614 105.945C120.286 107.677 120.622 110.043 119.375 111.633C118.669 112.533 117.586 112.626 116.519 112.333C115.595 112.08 115.735 111.05 115.735 110.316C115.735 109.828 115.72 109.325 115.522 108.868C115.234 108.203 114.636 107.704 114.493 106.977Z" fill="white"/>
<path d="M99.1278 60.5169C98.6982 63.0805 101.666 63.1905 103.322 63.0782C104.469 63.0011 105.666 62.114 105.821 60.868C106.012 59.33 104.024 58.4194 103.067 57.9699C101.535 57.2501 99.4324 58.6989 99.1278 60.5169Z" fill="white"/>
<path d="M96.7179 203.319C96.2887 205.883 99.2562 205.993 100.912 205.881C102.059 205.803 103.256 204.916 103.411 203.67C103.602 202.132 101.614 201.222 100.657 200.772C99.1251 200.052 97.0224 201.501 96.7179 203.319Z" fill="white"/>
<path d="M99.1278 131.676C98.6982 134.24 101.666 134.349 103.322 134.237C104.469 134.16 105.666 133.273 105.821 132.027C106.012 130.489 104.024 129.579 103.067 129.129C101.535 128.409 99.4324 129.858 99.1278 131.676Z" fill="white"/>
<path d="M41.8505 23.7271C41.4208 26.2911 44.3887 26.4006 46.0447 26.2887C47.192 26.2113 48.3884 25.3243 48.5435 24.0784C48.7348 22.5402 46.7467 21.6297 45.7894 21.1801C44.2576 20.4605 42.155 21.9094 41.8505 23.7271Z" fill="white"/>
<path d="M39.4405 166.529C39.0109 169.093 41.9788 169.203 43.6348 169.091C44.782 169.013 45.9785 168.126 46.1335 166.881C46.3249 165.342 44.3368 164.432 43.3795 163.982C41.8477 163.263 39.745 164.712 39.4405 166.529Z" fill="white"/>
<path d="M41.8505 94.886C41.4208 97.4501 44.3887 97.5595 46.0447 97.4477C47.192 97.3701 48.3884 96.4831 48.5435 95.2375C48.7348 93.6991 46.7467 92.7885 45.7894 92.3389C44.2576 91.6196 42.155 93.0684 41.8505 94.886Z" fill="white"/>
<path d="M12.9317 42.606C12.502 45.17 15.47 45.2795 17.126 45.1676C18.2732 45.0902 19.4697 44.2032 19.6247 42.9573C19.816 41.4191 17.8279 40.5086 16.8707 40.059C15.3389 39.3394 13.2362 40.7883 12.9317 42.606Z" fill="white"/>
<path d="M10.5217 185.408C10.0925 187.973 13.06 188.082 14.716 187.97C15.8632 187.893 17.0597 187.006 17.2147 185.76C17.4061 184.222 15.418 183.311 14.4612 182.861C12.9289 182.142 10.8262 183.591 10.5217 185.408Z" fill="white"/>
<path d="M128.933 42.606C128.503 45.17 131.47 45.2795 133.126 45.1676C134.274 45.0902 135.47 44.2032 135.625 42.9573C135.817 41.4191 133.829 40.5086 132.872 40.059C131.34 39.3394 129.237 40.7883 128.933 42.606Z" fill="white"/>
<path d="M126.523 185.408C126.093 187.973 129.061 188.082 130.717 187.97C131.864 187.893 133.06 187.006 133.215 185.76C133.407 184.222 131.419 183.311 130.462 182.861C128.93 182.142 126.827 183.591 126.523 185.408Z" fill="white"/>
<path d="M12.9317 113.765C12.502 116.329 15.47 116.439 17.126 116.327C18.2732 116.249 19.4697 115.362 19.6247 114.116C19.816 112.578 17.8279 111.668 16.8707 111.218C15.3389 110.498 13.2362 111.947 12.9317 113.765Z" fill="white"/>
<path d="M128.933 113.765C128.503 116.329 131.47 116.439 133.126 116.327C134.274 116.249 135.47 115.362 135.625 114.116C135.817 112.578 133.829 111.668 132.872 111.218C131.34 110.498 129.237 111.947 128.933 113.765Z" fill="white"/>
<path d="M-1.02703 52.4093C-0.402345 51.3389 0.517195 51.3606 1.46525 51.6821C2.05129 51.9085 2.72841 51.7916 3.10699 51.9085C3.97363 52.176 4.40235 52.9891 4.57301 53.9279C4.63051 54.2467 4.86511 56.6486 4.47733 56.7554C3.80803 56.9397 2.76015 56.626 2.05129 56.626C1.11473 56.626 -1.60755 55.5495 -1.56937 54.3317C-1.54821 53.6609 -1.35547 52.973 -1.02703 52.4093Z" fill="white"/>
<path d="M-3.437 195.212C-2.81232 194.141 -1.89278 194.163 -0.944719 194.485C-0.358679 194.711 0.318441 194.594 0.697021 194.711C1.56366 194.978 1.99239 195.792 2.16305 196.73C2.22055 197.049 2.45514 199.451 2.06736 199.558C1.39806 199.742 0.350182 199.428 -0.358678 199.428C-1.29524 199.428 -4.01752 198.352 -3.97934 197.134C-3.95818 196.463 -3.76544 195.775 -3.437 195.212Z" fill="white"/>
<path d="M114.974 52.4093C115.598 51.3389 116.518 51.3606 117.466 51.6821C118.052 51.9085 118.729 51.7916 119.108 51.9085C119.975 52.176 120.403 52.9891 120.573 53.9279C120.631 54.2467 120.866 56.6486 120.478 56.7554C119.808 56.9397 118.761 56.626 118.052 56.626C117.116 56.626 114.393 55.5495 114.432 54.3317C114.452 53.6609 114.645 52.973 114.974 52.4093Z" fill="white"/>
<path d="M112.564 195.212C113.188 194.141 114.108 194.163 115.056 194.485C115.642 194.711 116.319 194.594 116.698 194.711C117.565 194.978 117.993 195.792 118.164 196.73C118.222 197.049 118.456 199.451 118.068 199.558C117.399 199.742 116.351 199.428 115.642 199.428C114.706 199.428 111.983 198.352 112.022 197.134C112.043 196.463 112.236 195.775 112.564 195.212Z" fill="white"/>
<path d="M-1.02703 123.568C-0.402345 122.498 0.517195 122.52 1.46525 122.841C2.05129 123.068 2.72841 122.951 3.10699 123.068C3.97363 123.335 4.40235 124.148 4.57301 125.087C4.63051 125.406 4.86511 127.807 4.47733 127.914C3.80803 128.099 2.76015 127.785 2.05129 127.785C1.11473 127.785 -1.60755 126.709 -1.56937 125.491C-1.54821 124.82 -1.35547 124.132 -1.02703 123.568Z" fill="white"/>
<path d="M114.974 123.568C115.598 122.498 116.518 122.52 117.466 122.841C118.052 123.068 118.729 122.951 119.108 123.068C119.975 123.335 120.403 124.148 120.573 125.087C120.631 125.406 120.866 127.807 120.478 127.914C119.808 128.099 118.761 127.785 118.052 127.785C117.116 127.785 114.393 126.709 114.432 125.491C114.452 124.82 114.645 124.132 114.974 123.568Z" fill="white"/>
<path d="M28.8559 34.4985C29.4802 33.4282 30.3997 33.45 31.3478 33.7715C31.9343 33.9977 32.6109 33.8809 32.9895 33.9977C33.8566 34.2652 34.2853 35.0783 34.4555 36.0172C34.5135 36.3359 34.7481 38.7376 34.3603 38.8445C33.6905 39.029 32.6427 38.7152 31.9343 38.7152C30.9972 38.7152 28.2754 37.6387 28.3136 36.4211C28.3343 35.7503 28.527 35.062 28.8559 34.4985Z" fill="white"/>
<path d="M26.446 177.301C27.0702 176.23 27.9898 176.253 28.9378 176.574C29.5243 176.8 30.201 176.683 30.5796 176.8C31.4467 177.068 31.8754 177.881 32.0456 178.819C32.1035 179.138 32.3381 181.54 31.9504 181.647C31.2806 181.831 30.2327 181.518 29.5243 181.518C28.5873 181.518 25.8655 180.441 25.9037 179.224C25.9244 178.553 26.1171 177.864 26.446 177.301Z" fill="white"/>
<path d="M28.8559 105.658C29.4802 104.587 30.3997 104.609 31.3478 104.93C31.9343 105.157 32.6109 105.04 32.9895 105.157C33.8566 105.424 34.2853 106.237 34.4555 107.176C34.5135 107.495 34.7481 109.897 34.3603 110.004C33.6905 110.188 32.6427 109.874 31.9343 109.874C30.9972 109.874 28.2754 108.798 28.3136 107.58C28.3343 106.909 28.527 106.221 28.8559 105.658Z" fill="white"/>
<path d="M55.2866 141.479C55.9108 140.409 56.8304 140.431 57.7784 140.752C58.3649 140.978 59.0421 140.862 59.4206 140.978C60.2873 141.246 60.716 142.059 60.8862 142.998C60.9442 143.317 61.1788 145.719 60.791 145.825C60.1212 146.01 59.0734 145.696 58.365 145.696C57.4284 145.696 54.7061 144.619 54.7443 143.402C54.765 142.731 54.9577 142.043 55.2866 141.479Z" fill="white"/>
<path d="M57.6966 68.8681C58.3208 67.7976 59.2403 67.8193 60.1884 68.1409C60.7749 68.3673 61.4515 68.2504 61.8301 68.3673C62.6972 68.6348 63.1259 69.4479 63.2961 70.3867C63.3541 70.7055 63.5887 73.1069 63.2009 73.2136C62.5312 73.3984 61.4833 73.0848 60.7749 73.0848C59.8378 73.0848 57.116 72.0083 57.1542 70.7905C57.1749 70.1196 57.3677 69.4313 57.6966 68.8681Z" fill="white"/>
<path d="M55.2866 211.67C55.9108 210.6 56.8304 210.622 57.7784 210.943C58.3649 211.17 59.0421 211.053 59.4206 211.17C60.2873 211.437 60.716 212.25 60.8862 213.189C60.9442 213.508 61.1788 215.909 60.791 216.016C60.1212 216.201 59.0734 215.887 58.365 215.887C57.4284 215.887 54.7061 214.81 54.7443 213.593C54.765 212.922 54.9577 212.234 55.2866 211.67Z" fill="white"/>
<path d="M13.9501 63.1674C12.7854 62.6439 13.6198 59.2547 14.3567 59.2547C15.0937 59.2547 17.0878 59.0759 17.545 59.7638C17.9981 60.4462 18.6196 62.3048 17.7676 62.9327C16.608 63.7883 15.239 63.7462 13.9501 63.1674Z" fill="white"/>
<path d="M11.5402 205.969C10.3755 205.446 11.2099 202.057 11.9468 202.057C12.6837 202.057 14.6778 201.878 15.1351 202.566C15.5882 203.249 16.2096 205.107 15.3582 205.735C14.1981 206.591 12.8291 206.549 11.5402 205.969Z" fill="white"/>
<path d="M129.951 63.1674C128.786 62.6439 129.621 59.2547 130.358 59.2547C131.095 59.2547 133.088 59.0759 133.546 59.7638C133.999 60.4462 134.62 62.3048 133.769 62.9327C132.608 63.7883 131.24 63.7462 129.951 63.1674Z" fill="white"/>
<path d="M127.541 205.969C126.376 205.446 127.211 202.057 127.948 202.057C128.685 202.057 130.678 201.878 131.136 202.566C131.589 203.249 132.21 205.107 131.359 205.735C130.199 206.591 128.83 206.549 127.541 205.969Z" fill="white"/>
<path d="M13.9501 134.326C12.7854 133.803 13.6198 130.414 14.3567 130.414C15.0937 130.414 17.0878 130.235 17.545 130.923C17.9981 131.605 18.6196 133.464 17.7676 134.092C16.608 134.947 15.239 134.905 13.9501 134.326Z" fill="white"/>
<path d="M129.951 134.326C128.786 133.803 129.621 130.414 130.358 130.414C131.095 130.414 133.088 130.235 133.546 130.923C133.999 131.605 134.62 133.464 133.769 134.092C132.608 134.947 131.24 134.905 129.951 134.326Z" fill="white"/>
<path d="M43.8331 45.2564C42.6679 44.733 43.5028 41.344 44.2398 41.344C44.9767 41.344 46.9703 41.1649 47.4275 41.8531C47.8811 42.5355 48.5021 44.3939 47.6506 45.022C46.4905 45.8776 45.1216 45.8355 43.8331 45.2564Z" fill="white"/>
<path d="M41.4231 188.059C40.258 187.535 41.0929 184.146 41.8298 184.146C42.5667 184.146 44.5603 183.967 45.0176 184.655C45.4711 185.338 46.0921 187.196 45.2407 187.824C44.0806 188.68 42.7116 188.638 41.4231 188.059Z" fill="white"/>
<path d="M43.8331 116.416C42.6679 115.892 43.5028 112.503 44.2398 112.503C44.9767 112.503 46.9703 112.324 47.4275 113.012C47.8811 113.694 48.5021 115.553 47.6506 116.181C46.4905 117.037 45.1216 116.995 43.8331 116.416Z" fill="white"/>
<path d="M72.6737 8.46665C71.5085 7.94315 72.3434 4.55418 73.0803 4.55418C73.8172 4.55418 75.8109 4.37513 76.2681 5.06332C76.7217 5.7457 77.3427 7.60409 76.4912 8.23214C75.3311 9.08785 73.9621 9.04576 72.6737 8.46665Z" fill="white"/>
<path d="M70.2638 151.269C69.0986 150.745 69.9335 147.357 70.6704 147.357C71.4073 147.357 73.401 147.177 73.8582 147.866C74.3118 148.548 74.9328 150.406 74.0813 151.035C72.9212 151.89 71.5522 151.848 70.2638 151.269Z" fill="white"/>
<path d="M72.6737 79.6257C71.5085 79.1023 72.3434 75.7135 73.0803 75.7135C73.8172 75.7135 75.8109 75.5343 76.2681 76.2226C76.7217 76.905 77.3427 78.7632 76.4912 79.3915C75.3311 80.2471 73.9621 80.2051 72.6737 79.6257Z" fill="white"/>
<path d="M70.2638 222.428C69.0986 221.905 69.9335 218.516 70.6704 218.516C71.4073 218.516 73.401 218.337 73.8582 219.025C74.3118 219.707 74.9328 221.566 74.0813 222.194C72.9212 223.05 71.5522 223.007 70.2638 222.428Z" fill="white"/>
<path d="M30.5041 51.5061C29.1103 51.3966 27.7487 51.7833 27.1019 53.0316C26.2477 54.6819 27.9056 55.5412 29.1351 56.0369C30.1379 56.4411 32.0129 56.3598 33.0819 56.1875C33.8911 56.0572 34.4905 56.5987 35.0609 56.0369C35.41 55.6927 35.7067 53.7962 35.4077 53.3328C35.0089 52.716 34.3028 52.4666 33.7066 52.0891C33.3221 51.8452 32.7365 51.8119 32.2981 51.7615C31.7033 51.6936 31.0938 51.5527 30.5041 51.5061Z" fill="white"/>
<path d="M28.0942 194.308C26.7004 194.199 25.3388 194.586 24.6925 195.834C23.8378 197.484 25.4957 198.344 26.7252 198.839C27.728 199.244 29.603 199.162 30.672 198.99C31.4812 198.86 32.0806 199.401 32.651 198.839C33.0001 198.495 33.2968 196.599 32.9978 196.135C32.5994 195.518 31.8929 195.269 31.2967 194.891C30.9122 194.648 30.3266 194.614 29.8882 194.564C29.2934 194.496 28.6839 194.355 28.0942 194.308Z" fill="white"/>
<path d="M30.5041 122.665C29.1103 122.556 27.7487 122.942 27.1019 124.191C26.2477 125.841 27.9056 126.7 29.1351 127.196C30.1379 127.6 32.0129 127.519 33.0819 127.347C33.8911 127.216 34.4905 127.758 35.0609 127.196C35.41 126.852 35.7067 124.955 35.4077 124.492C35.0089 123.875 34.3028 123.626 33.7066 123.248C33.3221 123.004 32.7365 122.971 32.2981 122.921C31.7033 122.853 31.0938 122.712 30.5041 122.665Z" fill="white"/>
<path d="M59.3448 14.7166C57.951 14.6067 56.5894 14.9935 55.9426 16.2421C55.0884 17.892 56.7462 18.7515 57.9758 19.2473C58.9786 19.6515 60.8536 19.5703 61.9226 19.3979C62.7317 19.2674 63.3311 19.8091 63.9015 19.2473C64.2507 18.903 64.5474 17.0065 64.2484 16.5433C63.8495 15.9263 63.1435 15.6769 62.5473 15.2993C62.1627 15.0557 61.5772 15.0221 61.1388 14.972C60.544 14.904 59.9345 14.7631 59.3448 14.7166Z" fill="white"/>
<path d="M56.9348 157.519C55.541 157.409 54.1794 157.796 53.5331 159.044C52.6784 160.694 54.3363 161.554 55.5658 162.05C56.5686 162.454 58.4436 162.373 59.5126 162.2C60.3218 162.07 60.9212 162.612 61.4916 162.05C61.8407 161.706 62.1374 159.809 61.8384 159.346C61.44 158.728 60.7335 158.479 60.1373 158.101C59.7528 157.858 59.1672 157.824 58.7288 157.774C58.134 157.706 57.5245 157.566 56.9348 157.519Z" fill="white"/>
<path d="M59.3448 85.8757C57.951 85.7657 56.5894 86.1524 55.9426 87.4012C55.0884 89.051 56.7462 89.9108 57.9758 90.4065C58.9786 90.8108 60.8536 90.7295 61.9226 90.5571C62.7317 90.4264 63.3311 90.9683 63.9015 90.4065C64.2507 90.0623 64.5474 88.1658 64.2484 87.7024C63.8495 87.0852 63.1435 86.8362 62.5473 86.4583C62.1627 86.2148 61.5772 86.1811 61.1388 86.1312C60.544 86.0633 59.9345 85.9224 59.3448 85.8757Z" fill="white"/>
<path d="M86.8173 141.061C85.424 140.951 84.0619 141.337 83.4156 142.586C82.5614 144.236 84.2188 145.095 85.4488 145.591C86.4516 145.995 88.3261 145.914 89.3956 145.742C90.2048 145.611 90.8041 146.153 91.3741 145.591C91.7237 145.247 92.0204 143.35 91.7209 142.887C91.3226 142.27 90.6165 142.021 90.0203 141.643C89.6357 141.399 89.0502 141.366 88.6113 141.316C88.017 141.248 87.407 141.107 86.8173 141.061Z" fill="white"/>
<path d="M89.2273 67.9648C87.8339 67.8548 86.4719 68.242 85.8256 69.4903C84.9714 71.1401 86.6287 71.9999 87.8588 72.4956C88.8616 72.8999 90.7361 72.8186 91.8056 72.6462C92.6143 72.5155 93.2141 73.0574 93.784 72.4956C94.1336 72.1514 94.4299 70.2549 94.1309 69.7915C93.7325 69.1743 93.026 68.9253 92.4298 68.5474C92.0452 68.3039 91.4601 68.2702 91.0213 68.2203C90.4265 68.1524 89.817 68.0115 89.2273 67.9648Z" fill="white"/>
<path d="M86.1066 211.251C84.7128 211.141 83.3512 211.528 82.7045 212.777C81.8502 214.427 83.5081 215.286 84.7377 215.782C85.7405 216.186 87.615 216.105 88.6845 215.932C89.4936 215.802 90.093 216.343 90.6634 215.782C91.0125 215.437 91.3092 213.541 91.0102 213.078C90.6114 212.461 89.9053 212.211 89.3091 211.834C88.9246 211.59 88.339 211.557 87.9006 211.507C87.3058 211.438 86.6963 211.298 86.1066 211.251Z" fill="white"/>
<path d="M46.2034 58.7752C47.537 58.176 48.8912 57.9043 50.5408 59.1106C51.3656 60.4 50.8343 61.2007 50.2657 61.8244C49.4165 62.7558 49.0646 63.2617 47.8222 63.0639C46.7541 62.8939 44.2181 61.8521 44.2181 60.4C44.2181 59.6839 45.7402 58.9836 46.2034 58.7752Z" fill="white"/>
<path d="M43.7935 201.578C45.127 200.978 46.4813 200.707 48.1308 201.913C48.9556 203.203 48.4243 204.003 47.8558 204.627C47.0066 205.558 46.6547 206.064 45.4127 205.866C44.3441 205.696 41.8086 204.654 41.8086 203.203C41.8086 202.486 43.3303 201.786 43.7935 201.578Z" fill="white"/>
<path d="M46.2034 129.934C47.537 129.335 48.8912 129.063 50.5408 130.269C51.3656 131.559 50.8343 132.36 50.2657 132.983C49.4165 133.915 49.0646 134.421 47.8222 134.223C46.7541 134.053 44.2181 133.011 44.2181 131.559C44.2181 130.843 45.7402 130.143 46.2034 129.934Z" fill="white"/>
<path d="M75.0445 21.9857C76.3776 21.3863 77.7318 21.1146 79.3814 22.3207C80.2062 23.6106 79.6749 24.4112 79.1063 25.0345C78.2572 25.9662 77.9053 26.472 76.6633 26.2742C75.5947 26.1041 73.0592 25.0623 73.0592 23.6106C73.0592 22.8942 74.5808 22.1939 75.0445 21.9857Z" fill="white"/>
<path d="M72.6341 164.788C73.9677 164.189 75.3219 163.917 76.9715 165.123C77.7962 166.413 77.2649 167.213 76.6964 167.837C75.8472 168.769 75.4953 169.274 74.2533 169.076C73.1847 168.906 70.6492 167.864 70.6492 166.413C70.6492 165.696 72.1709 164.996 72.6341 164.788Z" fill="white"/>
<path d="M75.0445 93.1448C76.3776 92.5456 77.7318 92.2735 79.3814 93.4798C80.2062 94.7697 79.6749 95.5703 79.1063 96.1935C78.2572 97.1254 77.9053 97.6308 76.6633 97.4331C75.5947 97.2631 73.0592 96.2213 73.0592 94.7697C73.0592 94.0531 74.5808 93.3532 75.0445 93.1448Z" fill="white"/>
<path d="M104.927 4.07493C106.26 3.47558 107.615 3.20383 109.264 4.40998C110.089 5.69986 109.557 6.50046 108.989 7.12379C108.14 8.05546 107.788 8.56121 106.546 8.36343C105.478 8.19332 102.942 7.15146 102.942 5.69986C102.942 4.98348 104.464 4.28319 104.927 4.07493Z" fill="white"/>
<path d="M102.517 146.877C103.85 146.278 105.205 146.006 106.854 147.212C107.679 148.502 107.147 149.303 106.579 149.926C105.73 150.858 105.378 151.364 104.136 151.165C103.068 150.995 100.532 149.954 100.532 148.502C100.532 147.786 102.054 147.086 102.517 146.877Z" fill="white"/>
<path d="M104.927 75.2339C106.26 74.6347 107.615 74.3626 109.264 75.5689C110.089 76.8588 109.557 77.6594 108.989 78.2826C108.14 79.2145 107.788 79.7204 106.546 79.5222C105.478 79.3522 102.942 78.3104 102.942 76.8588C102.942 76.1422 104.464 75.4423 104.927 75.2339Z" fill="white"/>
<path d="M102.517 218.036C103.85 217.437 105.205 217.165 106.854 218.371C107.679 219.661 107.147 220.462 106.579 221.085C105.73 222.017 105.378 222.522 104.136 222.325C103.068 222.155 100.532 221.113 100.532 219.661C100.532 218.945 102.054 218.245 102.517 218.036Z" fill="white"/>
<path d="M89.0837 20.015C87.9775 19.1428 88.6334 16.4284 89.1794 15.5449C89.5934 14.2396 91.4987 14.7337 92.3401 15.1288C92.7794 15.3352 93.7049 15.6653 93.7702 16.2832C93.8585 17.1185 93.503 17.9115 93.2274 18.6727C92.8479 19.7212 92.519 20.3365 91.363 20.4714C90.605 20.56 89.7176 20.5147 89.0837 20.015Z" fill="white"/>
<path d="M86.6738 162.817C85.5675 161.945 86.2235 159.231 86.7699 158.347C87.1835 157.042 89.0888 157.536 89.9301 157.931C90.3694 158.137 91.295 158.467 91.3603 159.086C91.4486 159.921 91.0935 160.714 90.8179 161.475C90.438 162.523 90.1091 163.139 88.9536 163.274C88.1955 163.362 87.3077 163.317 86.6738 162.817Z" fill="white"/>
<path d="M89.0837 91.1739C87.9775 90.3021 88.6334 87.5874 89.1794 86.7041C89.5934 85.3989 91.4987 85.8928 92.3401 86.2878C92.7794 86.4943 93.7049 86.8242 93.7702 87.4423C93.8585 88.2776 93.503 89.0704 93.2274 89.8318C92.8479 90.8801 92.519 91.4955 91.363 91.6304C90.605 91.7191 89.7176 91.6738 89.0837 91.1739Z" fill="white"/>
<path d="M60.1649 38.894C59.0586 38.0217 59.7146 35.3073 60.2611 34.4239C60.6746 33.1185 62.5799 33.6126 63.4213 34.0077C63.8606 34.2141 64.7861 34.5442 64.8514 35.1621C64.9397 35.9974 64.5846 36.7904 64.3091 37.5516C63.9296 38.6001 63.6002 39.2154 62.4447 39.3504C61.6866 39.4389 60.7988 39.3937 60.1649 38.894Z" fill="white"/>
<path d="M57.755 181.696C56.6487 180.824 57.3046 178.11 57.8511 177.226C58.2647 175.921 60.17 176.415 61.0113 176.81C61.4506 177.016 62.3761 177.347 62.4415 177.965C62.5298 178.8 62.1747 179.593 61.8991 180.354C61.5192 181.403 61.1903 182.018 60.0347 182.153C59.2767 182.242 58.3889 182.196 57.755 181.696Z" fill="white"/>
<path d="M55.8929 107.148C54.7866 106.276 55.4426 103.562 55.989 102.679C56.4026 101.373 58.3079 101.867 59.1492 102.262C59.5885 102.469 60.5141 102.799 60.5794 103.417C60.6677 104.252 60.3126 105.045 60.037 105.806C59.6571 106.855 59.3282 107.47 58.1727 107.605C57.4141 107.694 56.5268 107.648 55.8929 107.148Z" fill="white"/>
<path d="M0.477638 145.875C-0.628662 145.002 0.0272982 142.288 0.573778 141.405C0.987318 140.099 2.89264 140.594 3.73398 140.989C4.17328 141.195 5.0988 141.525 5.16412 142.143C5.25244 142.978 4.89686 143.771 4.62178 144.533C4.24182 145.581 3.91292 146.196 2.7574 146.331C1.99886 146.42 1.11152 146.375 0.477638 145.875Z" fill="white"/>
<path d="M116.479 145.875C115.372 145.002 116.028 142.288 116.574 141.405C116.988 140.099 118.894 140.594 119.735 140.989C120.174 141.195 121.1 141.525 121.165 142.143C121.253 142.978 120.898 143.771 120.622 144.533C120.243 145.581 119.914 146.196 118.758 146.331C118 146.42 117.112 146.375 116.479 145.875Z" fill="white"/>
<path d="M2.88755 73.2635C1.78125 72.3912 2.43721 69.6765 2.98323 68.7932C3.39723 67.488 5.30255 67.9819 6.14389 68.3769C6.58319 68.5834 7.50871 68.9133 7.57403 69.5314C7.66235 70.3667 7.30677 71.1595 7.03123 71.9209C6.65173 72.9696 6.32283 73.5846 5.16685 73.7195C4.40877 73.8082 3.52143 73.7629 2.88755 73.2635Z" fill="white"/>
<path d="M0.477638 216.065C-0.628662 215.194 0.0272982 212.479 0.573778 211.596C0.987318 210.29 2.89264 210.784 3.73398 211.179C4.17328 211.386 5.0988 211.716 5.16412 212.334C5.25244 213.169 4.89686 213.962 4.62178 214.723C4.24182 215.772 3.91292 216.387 2.7574 216.522C1.99886 216.611 1.11152 216.565 0.477638 216.065Z" fill="white"/>
<path d="M118.889 73.2635C117.782 72.3912 118.438 69.6765 118.984 68.7932C119.398 67.488 121.304 67.9819 122.145 68.3769C122.584 68.5834 123.51 68.9133 123.575 69.5314C123.663 70.3667 123.308 71.1595 123.032 71.9209C122.653 72.9696 122.324 73.5846 121.168 73.7195C120.41 73.8082 119.522 73.7629 118.889 73.2635Z" fill="white"/>
<path d="M116.479 216.065C115.372 215.194 116.028 212.479 116.574 211.596C116.988 210.29 118.894 210.784 119.735 211.179C120.174 211.386 121.1 211.716 121.165 212.334C121.253 213.169 120.898 213.962 120.622 214.723C120.243 215.772 119.914 216.387 118.758 216.522C118 216.611 117.112 216.565 116.479 216.065Z" fill="white"/>
<path d="M103.249 26.6806C101.674 25.7888 102.88 23.2374 103.249 22.1231C103.249 22.1231 105.869 21.756 106.355 22.1231C106.682 22.3703 106.625 23.3168 106.686 23.6513C106.854 24.5627 106.788 25.5189 106.767 26.4372C106.734 27.8499 104.132 27.1808 103.249 26.6806Z" fill="white"/>
<path d="M100.839 169.483C99.2649 168.591 100.47 166.04 100.839 164.925C100.839 164.925 103.459 164.558 103.945 164.925C104.272 165.173 104.215 166.119 104.277 166.454C104.444 167.365 104.378 168.321 104.357 169.239C104.324 170.652 101.722 169.983 100.839 169.483Z" fill="white"/>
<path d="M103.249 97.8396C101.674 96.9479 102.88 94.3963 103.249 93.2819C103.249 93.2819 105.869 92.9151 106.355 93.2819C106.682 93.5296 106.625 94.4757 106.686 94.8102C106.854 95.7218 106.788 96.6781 106.767 97.5961C106.734 99.0089 104.132 98.3399 103.249 97.8396Z" fill="white"/>
<path d="M74.3302 45.5596C72.7556 44.6677 73.9613 42.1163 74.3302 41.002C74.3302 41.002 76.9503 40.6349 77.4366 41.002C77.7636 41.2492 77.7061 42.1957 77.7678 42.5302C77.9352 43.4416 77.8694 44.3978 77.8483 45.3161C77.8151 46.729 75.2129 46.0597 74.3302 45.5596Z" fill="white"/>
<path d="M71.9202 188.362C70.3461 187.47 71.5513 184.919 71.9202 183.804C71.9202 183.804 74.5404 183.437 75.0266 183.804C75.3537 184.052 75.2962 184.998 75.3578 185.333C75.5252 186.244 75.4595 187.2 75.4383 188.119C75.4056 189.531 72.803 188.862 71.9202 188.362Z" fill="white"/>
<path d="M74.3302 112.604C72.7556 111.712 73.9613 109.161 74.3302 108.047C74.3302 108.047 76.9503 107.679 77.4366 108.047C77.7636 108.294 77.7061 109.24 77.7678 109.575C77.9352 110.486 77.8694 111.442 77.8483 112.361C77.8151 113.773 75.2129 113.104 74.3302 112.604Z" fill="white"/>
<path d="M17.0523 8.7699C15.4782 7.8781 16.6839 5.32666 17.0523 4.21234C17.0523 4.21234 19.673 3.84527 20.1587 4.21233C20.4862 4.45953 20.4287 5.40603 20.4899 5.74052C20.6578 6.6519 20.592 7.60815 20.5704 8.52647C20.5378 9.93908 17.9355 9.2701 17.0523 8.7699Z" fill="white"/>
<path d="M14.6429 151.572C13.0683 150.68 14.2739 148.129 14.6429 147.015C14.6429 147.015 17.263 146.648 17.7493 147.015C18.0763 147.262 18.0188 148.208 18.0805 148.543C18.2479 149.454 18.1821 150.411 18.161 151.329C18.1278 152.741 15.5256 152.072 14.6429 151.572Z" fill="white"/>
<path d="M133.053 8.7699C131.479 7.8781 132.684 5.32666 133.053 4.21234C133.053 4.21234 135.674 3.84527 136.16 4.21233C136.487 4.45953 136.429 5.40603 136.491 5.74052C136.658 6.6519 136.593 7.60815 136.571 8.52647C136.539 9.93908 133.937 9.2701 133.053 8.7699Z" fill="white"/>
<path d="M130.643 151.572C129.069 150.68 130.275 148.129 130.643 147.015C130.643 147.015 133.264 146.648 133.75 147.015C134.077 147.262 134.02 148.208 134.081 148.543C134.249 149.454 134.183 150.411 134.161 151.329C134.129 152.741 131.527 152.072 130.643 151.572Z" fill="white"/>
<path d="M17.0523 79.9288C15.4782 79.0371 16.6839 76.4855 17.0523 75.3712C17.0523 75.3712 19.673 75.0043 20.1587 75.3712C20.4862 75.6188 20.4287 76.565 20.4899 76.8995C20.6578 77.811 20.592 78.7673 20.5704 79.6853C20.5378 81.0981 17.9355 80.4291 17.0523 79.9288Z" fill="white"/>
<path d="M16.0886 223.215C14.5145 222.324 15.7197 219.772 16.0886 218.658C16.0886 218.658 18.7088 218.291 19.195 218.658C19.5221 218.905 19.4646 219.851 19.5262 220.186C19.6937 221.097 19.6279 222.054 19.6067 222.972C19.5741 224.385 16.9714 223.716 16.0886 223.215Z" fill="white"/>
<path d="M133.053 79.9288C131.479 79.0371 132.684 76.4855 133.053 75.3712C133.053 75.3712 135.674 75.0043 136.16 75.3712C136.487 75.6188 136.429 76.565 136.491 76.8995C136.658 77.811 136.593 78.7673 136.571 79.6853C136.539 81.0981 133.937 80.4291 133.053 79.9288Z" fill="white"/>
<path d="M128.233 222.731C126.659 221.839 127.865 219.288 128.233 218.174C128.233 218.174 130.854 217.807 131.34 218.174C131.667 218.421 131.61 219.367 131.671 219.702C131.839 220.613 131.773 221.57 131.751 222.488C131.719 223.9 129.117 223.232 128.233 222.731Z" fill="white"/>
<path d="M60.5674 53.3481C61.7731 53.1296 62.2621 53.8119 62.5257 54.7036C62.6669 55.2719 63.1338 55.6904 63.2483 56.0392C63.5105 56.8376 63.0924 57.6599 62.4309 58.3737C62.2064 58.6158 60.4032 60.2947 60.1033 60.0799C59.5863 59.7089 59.261 58.7498 58.8709 58.2347C58.3548 57.5537 57.7214 54.8981 58.7219 54.1612C59.2735 53.7551 59.9331 53.4627 60.5674 53.3481Z" fill="white"/>
<path d="M58.3327 192.688C59.5384 192.47 60.0274 193.152 60.2909 194.044C60.4317 194.612 60.8991 195.031 61.0136 195.379C61.2758 196.178 60.8577 197 60.1962 197.714C59.9717 197.956 58.1685 199.635 57.8686 199.42C57.3515 199.049 57.0263 198.09 56.6362 197.575C56.1201 196.894 55.4867 194.239 56.4872 193.501C57.0387 193.095 57.6984 192.803 58.3327 192.688Z" fill="white"/>
<path d="M61.4722 117.812C62.6774 117.593 63.1664 118.276 63.43 119.167C63.5712 119.736 64.0381 120.154 64.1527 120.503C64.4149 121.301 63.9972 122.124 63.3352 122.837C63.1108 123.08 61.3076 124.758 61.0081 124.544C60.4906 124.173 60.1658 123.214 59.7753 122.698C59.2592 122.017 58.6258 119.362 59.6267 118.625C60.1778 118.219 60.8379 117.926 61.4722 117.812Z" fill="white"/>
<path d="M3.29005 16.5582C4.49525 16.3399 4.98469 17.0223 5.24827 17.9136C5.38903 18.482 5.85593 18.9008 5.97093 19.2495C6.23313 20.0478 5.81499 20.8702 5.15351 21.5838C4.92903 21.826 3.12583 23.5051 2.82591 23.2902C2.30887 22.9192 1.98365 21.9602 1.59357 21.445C1.07745 20.7639 0.443568 18.1084 1.44453 17.3713C1.99561 16.9652 2.65571 16.6731 3.29005 16.5582Z" fill="white"/>
<path d="M0.88014 159.36C2.08534 159.142 2.57478 159.825 2.83836 160.716C2.97912 161.284 3.44602 161.703 3.56102 162.052C3.82322 162.85 3.40508 163.673 2.7436 164.386C2.51912 164.628 0.715919 166.307 0.415999 166.093C-0.101041 165.722 -0.426262 164.763 -0.816342 164.247C-1.33246 163.566 -1.96634 160.911 -0.965384 160.174C-0.414304 159.767 0.2458 159.475 0.88014 159.36Z" fill="white"/>
<path d="M119.291 16.5582C120.496 16.3399 120.985 17.0223 121.249 17.9136C121.39 18.482 121.857 18.9008 121.971 19.2495C122.234 20.0478 121.816 20.8702 121.154 21.5838C120.93 21.826 119.126 23.5051 118.827 23.2902C118.309 22.9192 117.985 21.9602 117.594 21.445C117.078 20.7639 116.445 18.1084 117.446 17.3713C117.997 16.9652 118.657 16.6731 119.291 16.5582Z" fill="white"/>
<path d="M116.881 159.36C118.086 159.142 118.575 159.825 118.839 160.716C118.98 161.284 119.447 161.703 119.561 162.052C119.824 162.85 119.406 163.673 118.745 164.386C118.52 164.628 116.716 166.307 116.417 166.093C115.899 165.722 115.575 164.763 115.184 164.247C114.668 163.566 114.035 160.911 115.036 160.174C115.587 159.767 116.247 159.475 116.881 159.36Z" fill="white"/>
<path d="M3.29005 87.7172C4.49525 87.4991 4.98469 88.1815 5.24827 89.0727C5.38903 89.641 5.85593 90.06 5.97093 90.4088C6.23313 91.2067 5.81499 92.0295 5.15351 92.7428C4.92903 92.9849 3.12583 94.6643 2.82591 94.4495C2.30887 94.0785 1.98365 93.1194 1.59357 92.6042C1.07745 91.9228 0.443568 89.2677 1.44453 88.5303C1.99561 88.1242 2.65571 87.8322 3.29005 87.7172Z" fill="white"/>
<path d="M119.291 87.7172C120.496 87.4991 120.985 88.1815 121.249 89.0727C121.39 89.641 121.857 90.06 121.971 90.4088C122.234 91.2067 121.816 92.0295 121.154 92.7428C120.93 92.9849 119.126 94.6643 118.827 94.4495C118.309 94.0785 117.985 93.1194 117.594 92.6042C117.078 91.9228 116.445 89.2677 117.446 88.5303C117.997 88.1242 118.657 87.8322 119.291 87.7172Z" fill="white"/>
<path d="M89.4329 32.6145C90.6386 32.3962 91.1275 33.0785 91.3911 33.9699C91.5319 34.5383 91.9992 34.9571 92.1138 35.3057C92.376 36.104 91.9578 36.9264 91.2964 37.64C91.0719 37.8823 89.2687 39.5613 88.9688 39.3465C88.4517 38.9754 88.1265 38.0165 87.7364 37.5013C87.2203 36.8201 86.5869 34.1646 87.5874 33.4276C88.1389 33.0216 88.7986 32.7294 89.4329 32.6145Z" fill="white"/>
<path d="M87.0229 175.417C88.2286 175.199 88.7176 175.881 88.9812 176.772C89.1219 177.341 89.5893 177.76 89.7038 178.108C89.966 178.906 89.5479 179.729 88.8864 180.442C88.6619 180.685 86.8587 182.364 86.5588 182.149C86.0418 181.778 85.7165 180.819 85.3265 180.303C84.8103 179.622 84.1769 176.967 85.1774 176.23C85.729 175.824 86.3886 175.532 87.0229 175.417Z" fill="white"/>
<path d="M91.3612 102.365C92.5664 102.147 93.0554 102.83 93.319 103.721C93.4602 104.289 93.9271 104.708 94.0416 105.057C94.3038 105.855 93.8857 106.677 93.2242 107.391C92.9997 107.633 91.1965 109.312 90.8966 109.098C90.3796 108.727 90.0543 107.768 89.6643 107.252C89.1481 106.571 88.5147 103.916 89.5152 103.179C90.0668 102.772 90.7264 102.48 91.3612 102.365Z" fill="white"/>
<path d="M30.7631 140.079C31.9683 139.861 32.4573 140.543 32.7209 141.435C32.8621 142.003 33.329 142.422 33.4435 142.77C33.7057 143.569 33.2881 144.391 32.6261 145.105C32.4016 145.347 30.5984 147.026 30.299 146.811C29.7815 146.44 29.4567 145.481 29.0662 144.966C28.5501 144.285 27.9166 141.629 28.9171 140.892C29.4687 140.486 30.1288 140.194 30.7631 140.079Z" fill="white"/>
<path d="M33.173 69.8063C34.3782 69.5882 34.8672 70.2706 35.1308 71.1618C35.272 71.7305 35.7389 72.1491 35.8534 72.4979C36.1156 73.2963 35.6975 74.1186 35.036 74.8319C34.8115 75.074 33.0083 76.7534 32.7089 76.5386C32.1914 76.1676 31.8666 75.2085 31.4761 74.6933C30.96 74.0124 30.3265 71.3568 31.327 70.6194C31.8786 70.2133 32.5387 69.9213 33.173 69.8063Z" fill="white"/>
<path d="M30.7631 212.609C31.9683 212.391 32.4573 213.073 32.7209 213.964C32.8621 214.532 33.329 214.951 33.4435 215.3C33.7057 216.098 33.2881 216.921 32.6261 217.634C32.4016 217.876 30.5984 219.556 30.299 219.341C29.7815 218.97 29.4567 218.011 29.0662 217.496C28.5501 216.814 27.9166 214.159 28.9171 213.422C29.4687 213.016 30.1288 212.724 30.7631 212.609Z" fill="white"/>
<path d="M7.55976 231H2.46021C2.59775 230.418 2.79692 229.904 2.98322 229.602C3.39722 228.297 5.30254 228.791 6.14388 229.186C6.19724 229.211 6.2575 229.238 6.32236 229.267C6.79478 229.477 7.51653 229.797 7.57403 230.341C7.59749 230.563 7.58966 230.783 7.55976 231Z" fill="white"/>
<path d="M35.8636 231H30.8179C30.7475 230.209 30.856 229.437 31.3271 229.09C31.8786 228.684 32.5387 228.392 33.173 228.277C34.3782 228.059 34.8672 228.741 35.1308 229.633C35.2136 229.965 35.4077 230.247 35.5775 230.493C35.698 230.667 35.8061 230.824 35.8535 230.968C35.8571 230.979 35.8604 230.989 35.8636 231Z" fill="white"/>
<path d="M63.2566 231H57.2172C57.3019 230.53 57.4656 230.073 57.6966 229.677C58.3208 228.606 59.2403 228.629 60.1884 228.95C60.5315 229.082 60.906 229.097 61.233 229.11C61.4649 229.12 61.6733 229.128 61.8301 229.176C62.636 229.425 63.0634 230.145 63.2566 231Z" fill="white"/>
<path d="M94.0725 231H85.7258C85.7543 230.929 85.7874 230.857 85.8256 230.784C86.4719 229.535 87.8339 229.148 89.2273 229.258C89.5599 229.284 89.8989 229.34 90.2375 229.397C90.4997 229.44 90.7618 229.484 91.0213 229.513C91.0746 229.519 91.1299 229.525 91.1869 229.531C91.5991 229.575 92.0922 229.627 92.4298 229.841C92.5853 229.939 92.7477 230.028 92.9105 230.118C93.3434 230.357 93.7772 230.596 94.0725 231Z" fill="white"/>
<path d="M123.561 231H118.461C118.599 230.418 118.798 229.904 118.984 229.602C119.398 228.297 121.304 228.791 122.145 229.186C122.198 229.211 122.258 229.238 122.323 229.267C122.796 229.477 123.518 229.797 123.575 230.341C123.598 230.563 123.591 230.783 123.561 231Z" fill="white"/>
<path d="M146 227.623V231H143.556C143.351 230.7 143.165 230.393 143.093 230.028C142.852 228.803 143.302 227.427 144.694 227.304C145.06 227.45 145.474 227.526 145.888 227.602C145.925 227.609 145.963 227.616 146 227.623Z" fill="white"/>
<path d="M146 210.586V218.492C145.707 218.48 145.407 218.428 145.107 218.346C144.288 218.121 144.305 217.285 144.32 216.588C144.321 216.499 144.323 216.412 144.323 216.329C144.323 215.84 144.309 215.338 144.111 214.881C143.993 214.609 143.823 214.364 143.654 214.12C143.409 213.769 143.165 213.419 143.081 212.99C142.84 211.765 143.29 210.389 144.682 210.265C145.048 210.411 145.462 210.487 145.876 210.564C145.918 210.571 145.959 210.579 146 210.586Z" fill="white"/>
<path d="M146 193.926V199.568C145.971 199.572 145.942 199.576 145.913 199.579C145.154 199.668 144.267 199.623 143.633 199.123C142.527 198.251 143.183 195.536 143.729 194.653C144.028 193.709 145.107 193.706 146 193.926Z" fill="white"/>
<path d="M146 177.184V181.613C144.908 181.747 143.307 181.775 142.408 181.413C141.178 180.917 139.52 180.057 140.375 178.407C141.021 177.159 142.383 176.772 143.776 176.882C144.109 176.908 144.448 176.965 144.787 177.02C145.049 177.064 145.311 177.108 145.57 177.137C145.624 177.143 145.679 177.149 145.736 177.155C145.822 177.164 145.91 177.173 146 177.184Z" fill="white"/>
<path d="M146 160.266V164.758C145.724 164.746 145.43 164.704 145.143 164.664C144.821 164.619 144.508 164.575 144.243 164.575C143.306 164.575 140.584 163.499 140.622 162.281C140.643 161.61 140.836 160.921 141.164 160.358C141.789 159.288 142.708 159.31 143.656 159.631C143.999 159.764 144.374 159.778 144.701 159.791C144.933 159.801 145.141 159.809 145.298 159.857C145.575 159.943 145.807 160.084 146 160.266Z" fill="white"/>
<path d="M146 141.352V145.776C145.884 146.025 145.74 146.263 145.565 146.486C144.859 147.386 143.776 147.48 142.709 147.187C141.89 146.962 141.907 146.126 141.922 145.429C141.923 145.34 141.925 145.253 141.925 145.17C141.925 144.681 141.911 144.179 141.713 143.722C141.595 143.45 141.425 143.205 141.256 142.961C141.011 142.61 140.767 142.26 140.683 141.831C140.442 140.606 140.892 139.23 142.284 139.106C142.65 139.252 143.064 139.328 143.478 139.405C144.436 139.581 145.401 139.759 145.805 140.799C145.874 140.977 145.939 141.162 146 141.352Z" fill="white"/>
<path d="M146 124.721V128.897C145.043 128.065 145.502 125.772 146 124.721Z" fill="white"/>
<path d="M146 106.679V111.474C145.553 111.431 145.14 111.352 144.818 111.221C143.588 110.726 141.93 109.866 142.785 108.217C143.402 107.024 144.672 106.617 146 106.679Z" fill="white"/>
<path d="M146 89.4182V94.2849C144.826 93.992 143.001 93.0884 143.032 92.0895C143.053 91.4187 143.246 90.7308 143.574 90.1671C144.184 89.1216 145.075 89.1184 146 89.4182Z" fill="white"/>
<path d="M146 69.2339V77.1415C145.711 77.1281 145.414 77.0769 145.119 76.996C144.3 76.771 144.317 75.9352 144.332 75.2376C144.333 75.1489 144.335 75.0621 144.335 74.9789C144.335 74.4906 144.321 73.9875 144.123 73.531C144.005 73.2584 143.835 73.014 143.665 72.7705C143.421 72.419 143.177 72.0688 143.093 71.6396C142.852 70.4148 143.302 69.0385 144.694 68.9152C145.06 69.0612 145.474 69.1374 145.888 69.2136C145.925 69.2205 145.963 69.2275 146 69.2339Z" fill="white"/>
<path d="M146 52.1095V56.2851C145.043 55.4544 145.502 53.161 146 52.1095Z" fill="white"/>
<path d="M146 34.0679V38.8628C145.553 38.8201 145.14 38.7403 144.818 38.6103C143.588 38.1145 141.93 37.255 142.785 35.6051C143.402 34.4123 144.672 34.0061 146 34.0679Z" fill="white"/>
<path d="M146 16.8069V21.6734C144.826 21.3806 143.001 20.477 143.032 19.4784C143.053 18.8076 143.246 18.1193 143.574 17.5559C144.184 16.5105 145.075 16.5069 146 16.8069Z" fill="white"/>
<path d="M146 4.53004C145.711 4.51709 145.414 4.46564 145.119 4.38457C144.3 4.15964 144.317 3.3241 144.332 2.62652C144.333 2.53749 144.335 2.45071 144.335 2.36774C144.335 1.87917 144.321 1.37616 144.123 0.919583C144.005 0.647299 143.835 0.402819 143.666 0.159177C143.628 0.106171 143.591 0.0532044 143.556 0H146V4.53004Z" fill="white"/>
<path d="M118.461 0C118.196 1.12347 118.159 2.49776 118.889 3.07241C119.522 3.57211 120.41 3.61736 121.168 3.52882C122.324 3.39383 122.653 2.77857 123.032 1.73004C123.068 1.63188 123.105 1.53318 123.142 1.43393C123.316 0.968851 123.494 0.491637 123.561 0H118.461Z" fill="white"/>
<path d="M94.0724 0H85.7257C85.1185 1.50952 86.6839 2.31509 87.8588 2.78871C88.8616 3.19293 90.7361 3.11172 91.8056 2.9393C92.1234 2.88804 92.4086 2.94055 92.6731 2.98911C93.0811 3.06414 93.4381 3.12977 93.784 2.78871C94.1336 2.44447 94.4299 0.547964 94.1309 0.0847202C94.112 0.055683 94.0927 0.0274602 94.0724 0Z" fill="white"/>
<path d="M63.2566 0C63.2708 0.0645077 63.2842 0.129779 63.2961 0.195671C63.3541 0.514372 63.5887 2.91611 63.2009 3.02294C62.7819 3.13842 62.2147 3.05872 61.6751 2.98292C61.3526 2.93761 61.0398 2.8937 60.7749 2.8937C59.8378 2.8937 57.116 1.81717 57.1542 0.599565C57.1602 0.400007 57.1818 0.198903 57.2172 0H63.2566Z" fill="white"/>
<path d="M35.8636 0C36.1046 0.78832 35.6888 1.59841 35.036 2.30254C34.8116 2.54476 33.0084 4.22385 32.7089 4.009C32.3851 3.77678 32.1367 3.31425 31.9002 2.87436C31.759 2.6114 31.6224 2.35652 31.4761 2.16377C31.2029 1.80323 30.897 0.889549 30.8178 0H35.8636Z" fill="white"/>
<path d="M2.46021 0C2.19479 1.12347 2.15891 2.49776 2.88755 3.07241C3.52143 3.57211 4.40877 3.61736 5.16685 3.52882C6.32283 3.39383 6.65173 2.77857 7.03123 1.73004C7.06711 1.63188 7.10391 1.53318 7.14071 1.43393C7.31459 0.968851 7.49307 0.491637 7.56024 0H2.46021Z" fill="white"/>
</g>
<defs>
<clipPath id="clip0_79_317">
<rect x="-84" width="230" height="231" rx="115" fill="white"/>
</clipPath>
</defs>
</svg>
